# xmcd
#
# Track frame offsets: 
#        150
#        15310
#        39985
#        54573
#        71223
#        90067
#        101424
#        117475
#        139135
#        155276
#        165991
#        182416
#        194793
#        218494
#        237919
#        255995
#        271922
#
# Disc length: 4098 seconds
#
# Revision: 1
# Processed by: cddbd v1.5.1PL2 Copyright (c) Steve Scherf et al.
# Submitted via: ExactAudioCopy v0.90b4
#
DISCID=d6100011
DTITLE=François Béranger - Le vrai changement, c'est quand ? CD3÷3 - L
DTITLE='Amour 
DYEAR=2004
DGENRE=Chanson
TTITLE0=Natacha
TTITLE1=Pour ma grand-mère
TTITLE2=Rachel
TTITLE3=La fille que j'aime
TTITLE4=Comptine
TTITLE5=Dis-mois oui
TTITLE6=Département 26
TTITLE7=Ma maison
TTITLE8=Évidence
TTITLE9=Lettre de mon frère
TTITLE10=Blues pour pinky
TTITLE11=Le p'tit bonheur
TTITLE12=Afrikaan-air
TTITLE13=Tango de l'ennui
TTITLE14=Le vieux
TTITLE15=Le monument aux oiseaux
TTITLE16=Tout le monde s'aime
EXTD=Compilation « long format » en 3 CD et 1 DVD - Le vrai changement
EXTD=, c'est quand ?
EXTT0=
EXTT1=
EXTT2=
EXTT3=
EXTT4=
EXTT5=
EXTT6=
EXTT7=
EXTT8=
EXTT9=
EXTT10=
EXTT11=
EXTT12=
EXTT13=
EXTT14=
EXTT15=
EXTT16=
PLAYORDER=
